<svg xmlns="http://www.w3.org/2000/svg" xmlns:xlink="http://www.w3.org/1999/xlink" width="500" zoomAndPan="magnify" viewBox="0 0 375 374.999991" height="500" preserveAspectRatio="xMidYMid meet" version="1.0"><defs><g/></defs><rect x="-37.5" width="450" fill="#ffffff" y="-37.499999" height="449.999989" fill-opacity="1"/><rect x="-37.5" width="450" fill="#ffffff" y="-37.499999" height="449.999989" fill-opacity="1"/><g fill="#737373" fill-opacity="1"><g transform="translate(67.108969, 228.902327)"><g><path d="M 18.0625 0 C 15.761719 -2.53125 13.574219 -6.386719 12.308594 -10.527344 L 20.882812 -10.527344 C 22.78125 -4.890625 27.382812 0.402344 33.710938 0.402344 C 36.644531 0.402344 40.324219 -0.691406 42.625 -3.910156 L 41.648438 -4.945312 C 39.804688 -2.992188 36.871094 -3.222656 35.433594 -6.5 C 33.132812 -11.851562 31.925781 -18.695312 29.453125 -26.058594 C 27.324219 -32.5 21.398438 -39.289062 9.777344 -39.289062 L 9.777344 -37.792969 C 12.367188 -37.792969 13.402344 -35.320312 14.898438 -30.488281 C 13.402344 -28.648438 11.792969 -26.574219 10.527344 -24.621094 C 6.671875 -18.753906 1.035156 -8.285156 1.035156 0 Z M 20.421875 -11.90625 L 11.964844 -11.90625 C 10.699219 -16.796875 10.757812 -22.03125 13.34375 -25.941406 C 14.035156 -26.980469 14.726562 -27.898438 15.417969 -28.878906 C 17.085938 -23.46875 18.695312 -17.199219 20.421875 -11.90625 Z M 20.421875 -11.90625 "/></g></g></g><g fill="#737373" fill-opacity="1"><g transform="translate(105.820488, 228.902327)"><g><path d="M 18.808594 -31.523438 C 17.027344 -31.523438 15.417969 -30.832031 13.863281 -30.027344 L 13.863281 -39 L 12.425781 -39 C 12.425781 -31.003906 1.324219 -37.21875 1.324219 -29.738281 L 1.324219 0 L 2.761719 0 C 2.761719 -1.035156 4.429688 -4.027344 6.5 -4.3125 C 12.078125 -5.121094 14.554688 0.402344 20.421875 0.402344 C 26.980469 0.402344 35.835938 -6.15625 35.835938 -15.589844 C 35.835938 -24.964844 29.050781 -31.523438 18.808594 -31.523438 Z M 13.863281 -24.390625 C 13.863281 -26.863281 14.152344 -28.589844 15.359375 -29.222656 C 18.003906 -30.546875 22.722656 -24.332031 24.273438 -17.542969 C 25.886719 -10.929688 26.460938 -4.71875 23.125 -2.644531 C 20.59375 -1.035156 16.96875 -1.898438 13.863281 -5.695312 Z M 13.863281 -24.390625 "/></g></g></g><g fill="#737373" fill-opacity="1"><g transform="translate(142.63382, 228.902327)"><g><path d="M 18.234375 -31.523438 C 7.9375 -31.523438 1.035156 -24.964844 1.035156 -15.589844 C 1.035156 -6.15625 7.9375 0.402344 18.234375 0.402344 C 28.472656 0.402344 35.378906 -6.15625 35.378906 -15.589844 C 35.378906 -24.964844 28.472656 -31.523438 18.234375 -31.523438 Z M 26.402344 -2.644531 C 23.125 -0.574219 18.808594 -5.175781 13.921875 -12.828125 C 9.03125 -20.535156 6.730469 -26.402344 10.007812 -28.53125 C 13.289062 -30.601562 17.601562 -26 22.492188 -18.292969 C 27.324219 -10.640625 29.738281 -4.71875 26.402344 -2.644531 Z M 26.402344 -2.644531 "/></g></g></g><g fill="#737373" fill-opacity="1"><g transform="translate(179.044508, 228.902327)"><g><path d="M 33.480469 0 L 33.480469 -31.121094 L 20.882812 -31.121094 L 20.882812 -6.5 C 20.765625 -4.542969 20.25 -3.164062 18.695312 -2.644531 C 15.300781 -1.609375 12.308594 -3.222656 14.09375 -15.070312 C 14.839844 -20.132812 15.417969 -25.082031 12.65625 -28.589844 C 7.824219 -34.6875 -2.1875 -30.257812 -6.039062 -25.195312 L -5.175781 -24.273438 C -3.335938 -26.058594 -1.4375 -26.519531 0.0585938 -25.195312 C 2.300781 -23.238281 2.011719 -20.019531 1.265625 -15.417969 C -0.171875 -6.441406 4.945312 0.230469 14.898438 0.230469 C 20.59375 0.230469 23.46875 -5.636719 29.394531 -4.429688 C 30.949219 -4.085938 32.039062 -2.875 32.039062 0 Z M 33.480469 0 "/></g></g></g><g fill="#737373" fill-opacity="1"><g transform="translate(213.844611, 228.902327)"><g><path d="M 17.601562 -20.996094 L 17.601562 -29.796875 L 26.171875 -29.796875 L 26.171875 -31.121094 L 17.601562 -31.121094 L 17.601562 -39.058594 L 16.222656 -39.058594 C 16.222656 -35.261719 13.117188 -31.121094 5.0625 -31.121094 L 1.035156 -31.121094 L 1.035156 -29.796875 L 5.0625 -29.796875 L 5.0625 -12.136719 C 5.0625 -2.242188 10.183594 0.402344 15.070312 0.402344 C 20.132812 0.402344 20.421875 -4.199219 23.238281 -4.199219 C 25.828125 -4.199219 25.886719 -2.589844 25.886719 -0.0585938 L 27.207031 -0.0585938 C 28.015625 -6.386719 27.554688 -14.324219 20.074219 -14.324219 C 14.898438 -14.324219 13.460938 -7.363281 9.492188 -7.363281 C 7.132812 -7.363281 6.5 -8.972656 6.730469 -10.527344 C 7.304688 -14.207031 17.601562 -13.574219 17.601562 -20.996094 Z M 17.601562 -20.996094 "/></g></g></g><g fill="#737373" fill-opacity="1"><g transform="translate(242.374947, 228.902327)"><g/></g></g><g fill="#737373" fill-opacity="1"><g transform="translate(257.560445, 228.902327)"><g><path d="M 17.027344 -30.890625 C 14.667969 -38.886719 9.320312 -39 1.324219 -39 L 1.324219 0 L 13.921875 0 L 13.921875 -1.09375 C 13.921875 -15.242188 3.855469 -8.109375 2.820312 -34.34375 C 3.96875 -30.660156 4.257812 -29.96875 5.925781 -24.332031 C 8.800781 -14.898438 19.269531 -18.003906 19.269531 -8.285156 L 20.707031 -8.285156 C 20.707031 -18.003906 31.179688 -14.898438 34.054688 -24.332031 C 35.664062 -29.855469 35.953125 -30.660156 37.046875 -34.167969 C 36.011719 -8.109375 26.058594 -15.242188 26.058594 -1.09375 L 26.058594 0 L 38.65625 0 L 38.65625 -39 L 37.160156 -39 C 29.96875 -38.945312 25.136719 -38.367188 22.894531 -30.890625 C 21.339844 -25.597656 21.515625 -26.460938 20.25 -21.917969 C 20.132812 -21.515625 20.019531 -21.109375 19.960938 -20.707031 L 19.671875 -21.917969 C 18.464844 -26.460938 18.636719 -25.597656 17.027344 -30.890625 Z M 17.027344 -30.890625 "/></g></g></g><g fill="#737373" fill-opacity="1"><g transform="translate(297.537425, 228.902327)"><g><path d="M 13.117188 -14.035156 C 33.824219 -19.097656 33.363281 -31.523438 18.175781 -31.523438 C 7.878906 -31.523438 0.976562 -24.964844 0.976562 -15.589844 C 0.976562 -6.15625 7.878906 0.402344 18.175781 0.402344 C 26.921875 0.402344 30.546875 -2.53125 35.433594 -8.109375 C 35.089844 -8.457031 34.746094 -8.859375 34.34375 -9.203125 C 27.726562 -1.898438 20.535156 -2.300781 13.863281 -12.828125 C 13.574219 -13.230469 13.34375 -13.632812 13.117188 -14.035156 Z M 18.003906 -24.964844 C 20.996094 -20.132812 17.199219 -16.222656 12.367188 -15.242188 C 8.570312 -21.742188 7.019531 -26.632812 9.953125 -28.53125 C 12.136719 -29.914062 15.589844 -28.878906 18.003906 -24.964844 Z M 18.003906 -24.964844 "/></g></g></g></svg>