<svg xmlns="http://www.w3.org/2000/svg" xmlns:xlink="http://www.w3.org/1999/xlink" width="500" zoomAndPan="magnify" viewBox="0 0 375 374.999991" height="500" preserveAspectRatio="xMidYMid meet" version="1.0"><defs><g/></defs><g fill="#737373" fill-opacity="1"><g transform="translate(15.588602, 199.010574)"><g><path d="M 23.019531 -20.289062 C 30.03125 -20.289062 31.492188 -26.785156 30.785156 -31.964844 L 29.75 -31.964844 C 29.75 -29.890625 29.234375 -28.574219 26.925781 -28.574219 C 24.574219 -28.574219 21.511719 -32.199219 16.804688 -32.199219 C 8.003906 -32.199219 0.847656 -24.949219 0.847656 -15.957031 C 0.847656 -6.96875 8.003906 0.328125 16.804688 0.328125 C 23.066406 0.328125 29.136719 -3.34375 31.726562 -8.660156 L 30.785156 -9.179688 C 29.042969 -5.835938 25.796875 -2.777344 21.605469 -3.8125 C 18.59375 -4.519531 15.015625 -7.910156 11.910156 -12.898438 C 7.53125 -19.960938 6.167969 -27.019531 8.898438 -28.714844 C 13.652344 -31.726562 16.050781 -20.289062 23.019531 -20.289062 Z M 23.019531 -20.289062 "/></g></g></g><g fill="#737373" fill-opacity="1"><g transform="translate(47.361586, 199.010574)"><g><path d="M 14.921875 -25.796875 C 6.496094 -25.796875 0.847656 -20.429688 0.847656 -12.757812 C 0.847656 -5.035156 6.496094 0.328125 14.921875 0.328125 C 23.300781 0.328125 28.949219 -5.035156 28.949219 -12.757812 C 28.949219 -20.429688 23.300781 -25.796875 14.921875 -25.796875 Z M 21.605469 -2.164062 C 18.921875 -0.472656 15.394531 -4.238281 11.390625 -10.496094 C 7.390625 -16.804688 5.507812 -21.605469 8.191406 -23.347656 C 10.875 -25.042969 14.40625 -21.277344 18.40625 -14.96875 C 22.359375 -8.707031 24.335938 -3.859375 21.605469 -2.164062 Z M 21.605469 -2.164062 "/></g></g></g><g fill="#737373" fill-opacity="1"><g transform="translate(77.157587, 199.010574)"><g><path d="M 0.941406 -31.914062 L 0.941406 0 L 11.25 0 L 11.25 -24.335938 C 11.25 -30.457031 2.117188 -25.371094 2.117188 -31.914062 Z M 0.941406 -31.914062 "/></g></g></g><g fill="#737373" fill-opacity="1"><g transform="translate(89.348999, 199.010574)"><g><path d="M 0.941406 -31.914062 L 0.941406 0 L 11.25 0 L 11.25 -24.335938 C 11.25 -30.457031 2.117188 -25.371094 2.117188 -31.914062 Z M 0.941406 -31.914062 "/></g></g></g><g fill="#737373" fill-opacity="1"><g transform="translate(101.54041, 199.010574)"><g><path d="M 17.136719 -25.796875 C 11.722656 -25.796875 8.753906 -22.40625 5.789062 -22.40625 C 4.238281 -22.40625 3.71875 -23.726562 3.71875 -25.46875 L 2.496094 -25.46875 C 1.648438 -17.652344 3.578125 -15.203125 7.578125 -15.203125 C 13.699219 -15.203125 11.53125 -23.441406 14.640625 -24.335938 C 17.605469 -25.183594 19.066406 -23.113281 17.933594 -14.59375 C 16.710938 -14.734375 15.394531 -14.78125 13.933594 -14.78125 C 5.132812 -14.78125 0.847656 -12.191406 0.847656 -7.296875 C 0.847656 -2.449219 4.660156 0.1875 13.039062 0.1875 C 16.992188 0.1875 18.21875 -1.082031 18.5 -2.871094 C 22.171875 2.964844 30.972656 -0.660156 34.269531 -5.035156 L 33.5625 -5.789062 C 32.058594 -4.285156 30.503906 -3.953125 29.28125 -5.035156 C 27.445312 -6.636719 27.679688 -9.273438 28.292969 -13.039062 C 29.46875 -20.382812 25.230469 -25.796875 17.136719 -25.796875 Z M 17.277344 -8.238281 C 17.277344 -5.367188 17.652344 -2.117188 16.523438 -1.601562 C 14.6875 -0.707031 12.664062 -2.070312 10.96875 -6.355469 C 9.648438 -9.601562 9.886719 -12.238281 11.722656 -13.132812 C 13.039062 -13.792969 15.347656 -13.839844 17.792969 -13.511719 L 17.792969 -13.320312 C 17.511719 -11.582031 17.324219 -9.839844 17.277344 -8.238281 Z M 17.277344 -8.238281 "/></g></g></g><g fill="#737373" fill-opacity="1"><g transform="translate(130.865696, 199.010574)"><g><path d="M 15.394531 -25.796875 C 13.933594 -25.796875 12.617188 -25.230469 11.34375 -24.574219 L 11.34375 -31.914062 L 10.167969 -31.914062 C 10.167969 -25.371094 1.082031 -30.457031 1.082031 -24.335938 L 1.082031 0 L 2.257812 0 C 2.257812 -0.847656 3.625 -3.296875 5.320312 -3.53125 C 9.886719 -4.191406 11.910156 0.328125 16.710938 0.328125 C 22.078125 0.328125 29.328125 -5.035156 29.328125 -12.757812 C 29.328125 -20.429688 23.773438 -25.796875 15.394531 -25.796875 Z M 11.34375 -19.960938 C 11.34375 -21.984375 11.582031 -23.394531 12.570312 -23.914062 C 14.734375 -24.996094 18.59375 -19.914062 19.863281 -14.359375 C 21.183594 -8.945312 21.652344 -3.859375 18.921875 -2.164062 C 16.851562 -0.847656 13.886719 -1.554688 11.34375 -4.660156 Z M 11.34375 -19.960938 "/></g></g></g><g fill="#737373" fill-opacity="1"><g transform="translate(160.991193, 199.010574)"><g><path d="M 10.734375 -11.484375 C 27.679688 -15.628906 27.304688 -25.796875 14.875 -25.796875 C 6.449219 -25.796875 0.800781 -20.429688 0.800781 -12.757812 C 0.800781 -5.035156 6.449219 0.328125 14.875 0.328125 C 22.03125 0.328125 24.996094 -2.070312 28.996094 -6.636719 C 28.714844 -6.917969 28.433594 -7.25 28.101562 -7.53125 C 22.691406 -1.554688 16.804688 -1.882812 11.34375 -10.496094 C 11.109375 -10.828125 10.921875 -11.15625 10.734375 -11.484375 Z M 14.734375 -20.429688 C 17.183594 -16.476562 14.074219 -13.273438 10.121094 -12.472656 C 7.015625 -17.792969 5.742188 -21.796875 8.144531 -23.347656 C 9.933594 -24.476562 12.757812 -23.632812 14.734375 -20.429688 Z M 14.734375 -20.429688 "/></g></g></g><g fill="#737373" fill-opacity="1"><g transform="translate(185.797654, 199.010574)"><g><path d="M 1.082031 -25.46875 L 1.082031 0 L 11.390625 0 L 11.296875 -20.710938 C 11.296875 -22.40625 11.722656 -23.632812 12.945312 -23.441406 C 15.863281 -23.019531 14.261719 -15.203125 20.382812 -15.203125 C 24.382812 -15.203125 26.597656 -17.652344 26.125 -25.46875 L 24.902344 -25.46875 C 24.902344 -23.726562 24.382812 -22.40625 22.832031 -22.40625 C 20.523438 -22.40625 20.710938 -25.796875 15.203125 -25.796875 C 11.296875 -25.796875 10.027344 -22.546875 6.917969 -21.984375 C 4.332031 -21.511719 2.257812 -21.84375 2.257812 -25.46875 Z M 1.082031 -25.46875 "/></g></g></g><g fill="#737373" fill-opacity="1"><g transform="translate(212.81646, 199.010574)"><g><path d="M 17.136719 -25.796875 C 11.722656 -25.796875 8.753906 -22.40625 5.789062 -22.40625 C 4.238281 -22.40625 3.71875 -23.726562 3.71875 -25.46875 L 2.496094 -25.46875 C 1.648438 -17.652344 3.578125 -15.203125 7.578125 -15.203125 C 13.699219 -15.203125 11.53125 -23.441406 14.640625 -24.335938 C 17.605469 -25.183594 19.066406 -23.113281 17.933594 -14.59375 C 16.710938 -14.734375 15.394531 -14.78125 13.933594 -14.78125 C 5.132812 -14.78125 0.847656 -12.191406 0.847656 -7.296875 C 0.847656 -2.449219 4.660156 0.1875 13.039062 0.1875 C 16.992188 0.1875 18.21875 -1.082031 18.5 -2.871094 C 22.171875 2.964844 30.972656 -0.660156 34.269531 -5.035156 L 33.5625 -5.789062 C 32.058594 -4.285156 30.503906 -3.953125 29.28125 -5.035156 C 27.445312 -6.636719 27.679688 -9.273438 28.292969 -13.039062 C 29.46875 -20.382812 25.230469 -25.796875 17.136719 -25.796875 Z M 17.277344 -8.238281 C 17.277344 -5.367188 17.652344 -2.117188 16.523438 -1.601562 C 14.6875 -0.707031 12.664062 -2.070312 10.96875 -6.355469 C 9.648438 -9.601562 9.886719 -12.238281 11.722656 -13.132812 C 13.039062 -13.792969 15.347656 -13.839844 17.792969 -13.511719 L 17.792969 -13.320312 C 17.511719 -11.582031 17.324219 -9.839844 17.277344 -8.238281 Z M 17.277344 -8.238281 "/></g></g></g><g fill="#737373" fill-opacity="1"><g transform="translate(242.141738, 199.010574)"><g><path d="M 14.40625 -17.183594 L 14.40625 -24.382812 L 21.417969 -24.382812 L 21.417969 -25.46875 L 14.40625 -25.46875 L 14.40625 -31.964844 L 13.273438 -31.964844 C 13.273438 -28.855469 10.734375 -25.46875 4.140625 -25.46875 L 0.847656 -25.46875 L 0.847656 -24.382812 L 4.140625 -24.382812 L 4.140625 -9.933594 C 4.140625 -1.835938 8.332031 0.328125 12.332031 0.328125 C 16.476562 0.328125 16.710938 -3.4375 19.019531 -3.4375 C 21.136719 -3.4375 21.183594 -2.117188 21.183594 -0.046875 L 22.265625 -0.046875 C 22.925781 -5.226562 22.546875 -11.722656 16.429688 -11.722656 C 12.191406 -11.722656 11.015625 -6.027344 7.765625 -6.027344 C 5.835938 -6.027344 5.320312 -7.34375 5.507812 -8.613281 C 5.976562 -11.628906 14.40625 -11.109375 14.40625 -17.183594 Z M 14.40625 -17.183594 "/></g></g></g><g fill="#737373" fill-opacity="1"><g transform="translate(265.489002, 199.010574)"><g><path d="M 1.082031 0 L 11.390625 0 L 11.390625 -16.191406 C 11.390625 -19.535156 8.566406 -19.535156 6.074219 -19.914062 C 3.390625 -20.335938 1.835938 -21.136719 1.082031 -22.125 Z M 12.285156 -26.644531 C 12.285156 -29.984375 9.886719 -32.292969 6.261719 -32.292969 C 2.636719 -32.292969 0.234375 -29.984375 0.234375 -26.644531 C 0.234375 -23.347656 2.636719 -21.042969 6.261719 -21.042969 C 9.886719 -21.042969 12.285156 -23.347656 12.285156 -26.644531 Z M 12.285156 -26.644531 "/></g></g></g><g fill="#737373" fill-opacity="1"><g transform="translate(277.962838, 199.010574)"><g><path d="M 14.921875 -25.796875 C 6.496094 -25.796875 0.847656 -20.429688 0.847656 -12.757812 C 0.847656 -5.035156 6.496094 0.328125 14.921875 0.328125 C 23.300781 0.328125 28.949219 -5.035156 28.949219 -12.757812 C 28.949219 -20.429688 23.300781 -25.796875 14.921875 -25.796875 Z M 21.605469 -2.164062 C 18.921875 -0.472656 15.394531 -4.238281 11.390625 -10.496094 C 7.390625 -16.804688 5.507812 -21.605469 8.191406 -23.347656 C 10.875 -25.042969 14.40625 -21.277344 18.40625 -14.96875 C 22.359375 -8.707031 24.335938 -3.859375 21.605469 -2.164062 Z M 21.605469 -2.164062 "/></g></g></g><g fill="#737373" fill-opacity="1"><g transform="translate(307.758839, 199.010574)"><g><path d="M 1.082031 -25.46875 L 1.082031 0 L 11.390625 0 L 11.390625 -19.722656 C 11.4375 -21.605469 11.816406 -23.019531 13.179688 -23.441406 C 15.957031 -24.335938 18.40625 -22.972656 16.945312 -13.320312 C 16.335938 -9.179688 15.863281 -5.132812 18.125 -2.257812 C 22.125 2.730469 30.269531 -0.894531 33.421875 -5.035156 L 32.714844 -5.789062 C 31.210938 -4.285156 29.65625 -3.953125 28.433594 -5.035156 C 26.597656 -6.636719 26.878906 -9.273438 27.445312 -13.039062 C 28.621094 -20.382812 24.429688 -25.796875 16.289062 -25.796875 C 12.664062 -25.796875 10.121094 -22.691406 7.34375 -22.03125 C 4.613281 -21.371094 2.257812 -21.652344 2.257812 -25.46875 Z M 1.082031 -25.46875 "/></g></g></g><g fill="#737373" fill-opacity="1"><g transform="translate(336.283927, 199.010574)"><g><path d="M 10.734375 -19.253906 C 3.953125 -20.949219 5.035156 -24.621094 7.8125 -24.621094 C 11.0625 -24.621094 12.992188 -18.078125 16.710938 -18.078125 C 20.757812 -18.078125 21.652344 -23.207031 21.652344 -25.46875 L 20.429688 -25.46875 C 20.429688 -24.054688 18.875 -23.347656 17.085938 -23.347656 C 13.792969 -23.347656 12.097656 -25.796875 7.8125 -25.796875 C 4.046875 -25.796875 0.753906 -21.9375 0.894531 -17.886719 C 1.035156 -12.523438 5.742188 -9.554688 10.167969 -8.707031 C 15.394531 -7.71875 17.085938 -5.695312 17.511719 -3.90625 C 17.886719 -2.257812 16.851562 -1.128906 15.675781 -1.035156 C 12.378906 -0.753906 12.425781 -8.804688 6.308594 -8.804688 C 1.316406 -8.804688 1.175781 -2.304688 1.175781 0 L 2.355469 0 C 2.355469 -1.742188 3.296875 -2.730469 5.273438 -2.730469 C 8.519531 -2.730469 9.746094 0.328125 14.027344 0.328125 C 19.960938 0.328125 22.125 -4.09375 22.265625 -8.613281 C 22.453125 -14.59375 17.886719 -17.417969 10.734375 -19.253906 Z M 10.734375 -19.253906 "/></g></g></g></svg>