<svg xmlns="http://www.w3.org/2000/svg" xmlns:xlink="http://www.w3.org/1999/xlink" width="500" zoomAndPan="magnify" viewBox="0 0 375 374.999991" height="500" preserveAspectRatio="xMidYMid meet" version="1.0"><defs><g/><clipPath id="e853008c30"><path d="M 113.050781 238.398438 L 232 238.398438 L 232 245.148438 L 113.050781 245.148438 Z M 113.050781 238.398438 " clip-rule="nonzero"/></clipPath></defs><rect x="-37.5" width="450" fill="#ffffff" y="-37.499999" height="449.999989" fill-opacity="1"/><rect x="-37.5" width="450" fill="#ffffff" y="-37.499999" height="449.999989" fill-opacity="1"/><g fill="#737373" fill-opacity="1"><g transform="translate(101.737515, 187.267192)"><g><path d="M 31.582031 -15.128906 L 30.140625 -15.1875 C 30.429688 -13.34375 28.933594 -10.066406 26.058594 -10.066406 C 23.238281 -10.066406 19.960938 -14.554688 14.265625 -14.554688 C 10.296875 -14.554688 5.578125 -12.65625 3.046875 -7.878906 C 4.890625 -16.855469 13.921875 -14.324219 13.921875 -20.996094 L 13.921875 -39 L 1.324219 -39 L 1.324219 0 L 2.761719 0 C 2.761719 -2.761719 3.453125 -5.753906 7.476562 -5.753906 C 11.449219 -5.753906 12.769531 0.402344 21.339844 0.402344 C 32.328125 0.402344 32.671875 -9.953125 31.582031 -15.128906 Z M 31.582031 -15.128906 "/></g></g></g><g fill="#737373" fill-opacity="1"><g transform="translate(134.754473, 187.267192)"><g><path d="M 18.234375 -31.523438 C 7.9375 -31.523438 1.035156 -24.964844 1.035156 -15.589844 C 1.035156 -6.15625 7.9375 0.402344 18.234375 0.402344 C 28.472656 0.402344 35.378906 -6.15625 35.378906 -15.589844 C 35.378906 -24.964844 28.472656 -31.523438 18.234375 -31.523438 Z M 26.402344 -2.644531 C 23.125 -0.574219 18.808594 -5.175781 13.921875 -12.828125 C 9.03125 -20.535156 6.730469 -26.402344 10.007812 -28.53125 C 13.289062 -30.601562 17.601562 -26 22.492188 -18.292969 C 27.324219 -10.640625 29.738281 -4.71875 26.402344 -2.644531 Z M 26.402344 -2.644531 "/></g></g></g><g fill="#737373" fill-opacity="1"><g transform="translate(171.165161, 187.267192)"><g><path d="M 13.117188 -23.527344 C 4.832031 -25.597656 6.15625 -30.085938 9.550781 -30.085938 C 13.519531 -30.085938 15.875 -22.089844 20.421875 -22.089844 C 25.367188 -22.089844 26.460938 -28.359375 26.460938 -31.121094 L 24.964844 -31.121094 C 24.964844 -29.394531 23.066406 -28.53125 20.882812 -28.53125 C 16.855469 -28.53125 14.785156 -31.523438 9.550781 -31.523438 C 4.945312 -31.523438 0.921875 -26.804688 1.09375 -21.859375 C 1.265625 -15.300781 7.019531 -11.675781 12.425781 -10.640625 C 18.808594 -9.433594 20.882812 -6.960938 21.398438 -4.773438 C 21.859375 -2.761719 20.59375 -1.378906 19.15625 -1.265625 C 15.128906 -0.921875 15.1875 -10.757812 7.707031 -10.757812 C 1.609375 -10.757812 1.4375 -2.820312 1.4375 0 L 2.875 0 C 2.875 -2.128906 4.027344 -3.335938 6.441406 -3.335938 C 10.410156 -3.335938 11.90625 0.402344 17.140625 0.402344 C 24.390625 0.402344 27.035156 -5.003906 27.207031 -10.527344 C 27.4375 -17.832031 21.859375 -21.285156 13.117188 -23.527344 Z M 13.117188 -23.527344 "/></g></g></g><g fill="#737373" fill-opacity="1"><g transform="translate(199.407886, 187.267192)"><g><path d="M 17.601562 -20.996094 L 17.601562 -29.796875 L 26.171875 -29.796875 L 26.171875 -31.121094 L 17.601562 -31.121094 L 17.601562 -39.058594 L 16.222656 -39.058594 C 16.222656 -35.261719 13.117188 -31.121094 5.0625 -31.121094 L 1.035156 -31.121094 L 1.035156 -29.796875 L 5.0625 -29.796875 L 5.0625 -12.136719 C 5.0625 -2.242188 10.183594 0.402344 15.070312 0.402344 C 20.132812 0.402344 20.421875 -4.199219 23.238281 -4.199219 C 25.828125 -4.199219 25.886719 -2.589844 25.886719 -0.0585938 L 27.207031 -0.0585938 C 28.015625 -6.386719 27.554688 -14.324219 20.074219 -14.324219 C 14.898438 -14.324219 13.460938 -7.363281 9.492188 -7.363281 C 7.132812 -7.363281 6.5 -8.972656 6.730469 -10.527344 C 7.304688 -14.207031 17.601562 -13.574219 17.601562 -20.996094 Z M 17.601562 -20.996094 "/></g></g></g><g fill="#737373" fill-opacity="1"><g transform="translate(227.938222, 187.267192)"><g/></g></g><g fill="#737373" fill-opacity="1"><g transform="translate(243.123719, 187.267192)"><g><path d="M 13.921875 0 L 13.921875 -39 L 1.324219 -39 L 1.324219 0 Z M 13.921875 0 "/></g></g></g><g fill="#737373" fill-opacity="1"><g transform="translate(258.366729, 187.267192)"><g><path d="M 1.324219 -31.121094 L 1.324219 0 L 13.921875 0 L 13.921875 -24.101562 C 13.976562 -26.402344 14.4375 -28.128906 16.105469 -28.648438 C 19.5 -29.738281 22.492188 -28.070312 20.707031 -16.277344 C 19.960938 -11.21875 19.386719 -6.269531 22.148438 -2.761719 C 27.035156 3.335938 36.988281 -1.09375 40.84375 -6.15625 L 39.980469 -7.074219 C 38.136719 -5.234375 36.238281 -4.832031 34.746094 -6.15625 C 32.5 -8.109375 32.847656 -11.332031 33.535156 -15.933594 C 34.972656 -24.90625 29.855469 -31.523438 19.902344 -31.523438 C 15.472656 -31.523438 12.367188 -27.726562 8.972656 -26.921875 C 5.636719 -26.117188 2.761719 -26.460938 2.761719 -31.121094 Z M 1.324219 -31.121094 "/></g></g></g><g fill="#737373" fill-opacity="1"><g transform="translate(64.832048, 228.902327)"><g><path d="M 18.292969 -30.773438 C 13.632812 -38.886719 7.878906 -39 2.820312 -39 L 1.378906 -39 L 1.378906 0 L 13.921875 0 L 13.921875 -1.09375 C 13.921875 -14.839844 4.488281 -8.457031 2.992188 -32.269531 L 13.75 -13.34375 C 19.15625 -3.855469 30.71875 -9.089844 30.71875 0 L 32.15625 0 L 32.15625 -39 L 19.617188 -39 L 19.617188 -37.910156 C 19.617188 -24.449219 28.53125 -29.96875 30.371094 -8.457031 C 29.625 -10.238281 28.589844 -12.195312 27.265625 -14.667969 C 24.851562 -19.15625 21.285156 -25.425781 18.292969 -30.773438 Z M 18.292969 -30.773438 "/></g></g></g><g fill="#737373" fill-opacity="1"><g transform="translate(98.36669, 228.902327)"><g><path d="M 18.234375 -31.523438 C 7.9375 -31.523438 1.035156 -24.964844 1.035156 -15.589844 C 1.035156 -6.15625 7.9375 0.402344 18.234375 0.402344 C 28.472656 0.402344 35.378906 -6.15625 35.378906 -15.589844 C 35.378906 -24.964844 28.472656 -31.523438 18.234375 -31.523438 Z M 26.402344 -2.644531 C 23.125 -0.574219 18.808594 -5.175781 13.921875 -12.828125 C 9.03125 -20.535156 6.730469 -26.402344 10.007812 -28.53125 C 13.289062 -30.601562 17.601562 -26 22.492188 -18.292969 C 27.324219 -10.640625 29.738281 -4.71875 26.402344 -2.644531 Z M 26.402344 -2.644531 "/></g></g></g><g fill="#737373" fill-opacity="1"><g transform="translate(134.777378, 228.902327)"><g><path d="M 13.117188 -23.527344 C 4.832031 -25.597656 6.15625 -30.085938 9.550781 -30.085938 C 13.519531 -30.085938 15.875 -22.089844 20.421875 -22.089844 C 25.367188 -22.089844 26.460938 -28.359375 26.460938 -31.121094 L 24.964844 -31.121094 C 24.964844 -29.394531 23.066406 -28.53125 20.882812 -28.53125 C 16.855469 -28.53125 14.785156 -31.523438 9.550781 -31.523438 C 4.945312 -31.523438 0.921875 -26.804688 1.09375 -21.859375 C 1.265625 -15.300781 7.019531 -11.675781 12.425781 -10.640625 C 18.808594 -9.433594 20.882812 -6.960938 21.398438 -4.773438 C 21.859375 -2.761719 20.59375 -1.378906 19.15625 -1.265625 C 15.128906 -0.921875 15.1875 -10.757812 7.707031 -10.757812 C 1.609375 -10.757812 1.4375 -2.820312 1.4375 0 L 2.875 0 C 2.875 -2.128906 4.027344 -3.335938 6.441406 -3.335938 C 10.410156 -3.335938 11.90625 0.402344 17.140625 0.402344 C 24.390625 0.402344 27.035156 -5.003906 27.207031 -10.527344 C 27.4375 -17.832031 21.859375 -21.285156 13.117188 -23.527344 Z M 13.117188 -23.527344 "/></g></g></g><g fill="#737373" fill-opacity="1"><g transform="translate(163.020103, 228.902327)"><g><path d="M 17.601562 -20.996094 L 17.601562 -29.796875 L 26.171875 -29.796875 L 26.171875 -31.121094 L 17.601562 -31.121094 L 17.601562 -39.058594 L 16.222656 -39.058594 C 16.222656 -35.261719 13.117188 -31.121094 5.0625 -31.121094 L 1.035156 -31.121094 L 1.035156 -29.796875 L 5.0625 -29.796875 L 5.0625 -12.136719 C 5.0625 -2.242188 10.183594 0.402344 15.070312 0.402344 C 20.132812 0.402344 20.421875 -4.199219 23.238281 -4.199219 C 25.828125 -4.199219 25.886719 -2.589844 25.886719 -0.0585938 L 27.207031 -0.0585938 C 28.015625 -6.386719 27.554688 -14.324219 20.074219 -14.324219 C 14.898438 -14.324219 13.460938 -7.363281 9.492188 -7.363281 C 7.132812 -7.363281 6.5 -8.972656 6.730469 -10.527344 C 7.304688 -14.207031 17.601562 -13.574219 17.601562 -20.996094 Z M 17.601562 -20.996094 "/></g></g></g><g fill="#737373" fill-opacity="1"><g transform="translate(191.550439, 228.902327)"><g><path d="M 20.9375 -31.523438 C 14.324219 -31.523438 10.699219 -27.382812 7.074219 -27.382812 C 5.175781 -27.382812 4.542969 -28.992188 4.542969 -31.121094 L 3.046875 -31.121094 C 2.011719 -21.570312 4.371094 -18.582031 9.261719 -18.582031 C 16.738281 -18.582031 14.09375 -28.648438 17.890625 -29.738281 C 21.515625 -30.773438 23.296875 -28.246094 21.917969 -17.832031 C 20.421875 -18.003906 18.808594 -18.0625 17.027344 -18.0625 C 6.269531 -18.0625 1.035156 -14.898438 1.035156 -8.917969 C 1.035156 -2.992188 5.695312 0.230469 15.933594 0.230469 C 20.765625 0.230469 22.261719 -1.324219 22.605469 -3.507812 C 27.09375 3.625 37.851562 -0.804688 41.878906 -6.15625 L 41.015625 -7.074219 C 39.175781 -5.234375 37.277344 -4.832031 35.78125 -6.15625 C 33.535156 -8.109375 33.824219 -11.332031 34.570312 -15.933594 C 36.011719 -24.90625 30.832031 -31.523438 20.9375 -31.523438 Z M 21.109375 -10.066406 C 21.109375 -6.558594 21.570312 -2.589844 20.191406 -1.957031 C 17.949219 -0.863281 15.472656 -2.53125 13.402344 -7.765625 C 11.792969 -11.734375 12.078125 -14.957031 14.324219 -16.050781 C 15.933594 -16.855469 18.753906 -16.910156 21.742188 -16.507812 L 21.742188 -16.277344 C 21.398438 -14.152344 21.167969 -12.023438 21.109375 -10.066406 Z M 21.109375 -10.066406 "/></g></g></g><g fill="#737373" fill-opacity="1"><g transform="translate(227.385913, 228.902327)"><g><path d="M 1.152344 -39 L 1.152344 0 L 13.75 0 L 13.75 -29.738281 C 13.75 -37.21875 2.589844 -31.003906 2.589844 -39 Z M 1.152344 -39 "/></g></g></g><g fill="#737373" fill-opacity="1"><g transform="translate(242.283808, 228.902327)"><g><path d="M 35.78125 5.003906 C 35.664062 6.789062 34.859375 7.9375 32.5 7.9375 C 28.53125 7.9375 20.59375 1.035156 10.988281 1.035156 C 3.507812 1.035156 1.035156 8.972656 1.898438 15.242188 L 3.222656 15.242188 C 3.222656 12.710938 4.085938 11.160156 6.617188 11.160156 C 13.574219 11.160156 20.480469 15.703125 26.171875 15.703125 C 31.867188 15.703125 37.5625 11.621094 37.5625 5.234375 C 37.5625 -3.105469 30.371094 -10.929688 20.074219 -8.570312 C 14.898438 -7.363281 9.433594 -4.773438 9.433594 -7.535156 C 9.433594 -10.125 15.015625 -10.183594 17.542969 -10.183594 L 18.351562 -10.183594 C 29.105469 -10.183594 35.722656 -13.921875 35.722656 -20.882812 C 35.722656 -23.183594 34.917969 -25.425781 33.421875 -26.921875 C 31.753906 -29.050781 33.421875 -31.121094 37.910156 -30.140625 L 37.910156 -31.40625 C 33.652344 -36.585938 27.554688 -33.996094 28.878906 -29.855469 C 26.058594 -30.949219 22.550781 -31.523438 18.351562 -31.523438 C 7.59375 -31.523438 0.976562 -27.839844 0.976562 -20.882812 C 0.976562 -15.589844 4.773438 -12.195312 11.21875 -10.816406 C 9.320312 -10.183594 8.054688 -9.03125 8.054688 -6.960938 C 8.054688 -2.53125 14.496094 0.976562 22.148438 1.667969 C 29.511719 2.359375 36.125 0.746094 35.78125 5.003906 Z M 23.871094 -12.078125 C 21.339844 -10.816406 18.867188 -11.90625 14.898438 -18.175781 C 11.503906 -23.640625 10.238281 -28.417969 12.828125 -29.683594 C 15.417969 -30.890625 17.890625 -29.796875 21.800781 -23.527344 C 25.195312 -18.121094 26.460938 -13.34375 23.871094 -12.078125 Z M 23.871094 -12.078125 "/></g></g></g><g fill="#737373" fill-opacity="1"><g transform="translate(279.039619, 228.902327)"><g><path d="M 1.324219 0 L 13.921875 0 L 13.921875 -19.789062 C 13.921875 -23.871094 10.46875 -23.871094 7.421875 -24.332031 C 4.140625 -24.851562 2.242188 -25.828125 1.324219 -27.035156 Z M 15.015625 -32.558594 C 15.015625 -36.644531 12.078125 -39.460938 7.652344 -39.460938 C 3.222656 -39.460938 0.289062 -36.644531 0.289062 -32.558594 C 0.289062 -28.53125 3.222656 -25.714844 7.652344 -25.714844 C 12.078125 -25.714844 15.015625 -28.53125 15.015625 -32.558594 Z M 15.015625 -32.558594 "/></g></g></g><g fill="#737373" fill-opacity="1"><g transform="translate(294.282637, 228.902327)"><g><path d="M 20.9375 -31.523438 C 14.324219 -31.523438 10.699219 -27.382812 7.074219 -27.382812 C 5.175781 -27.382812 4.542969 -28.992188 4.542969 -31.121094 L 3.046875 -31.121094 C 2.011719 -21.570312 4.371094 -18.582031 9.261719 -18.582031 C 16.738281 -18.582031 14.09375 -28.648438 17.890625 -29.738281 C 21.515625 -30.773438 23.296875 -28.246094 21.917969 -17.832031 C 20.421875 -18.003906 18.808594 -18.0625 17.027344 -18.0625 C 6.269531 -18.0625 1.035156 -14.898438 1.035156 -8.917969 C 1.035156 -2.992188 5.695312 0.230469 15.933594 0.230469 C 20.765625 0.230469 22.261719 -1.324219 22.605469 -3.507812 C 27.09375 3.625 37.851562 -0.804688 41.878906 -6.15625 L 41.015625 -7.074219 C 39.175781 -5.234375 37.277344 -4.832031 35.78125 -6.15625 C 33.535156 -8.109375 33.824219 -11.332031 34.570312 -15.933594 C 36.011719 -24.90625 30.832031 -31.523438 20.9375 -31.523438 Z M 21.109375 -10.066406 C 21.109375 -6.558594 21.570312 -2.589844 20.191406 -1.957031 C 17.949219 -0.863281 15.472656 -2.53125 13.402344 -7.765625 C 11.792969 -11.734375 12.078125 -14.957031 14.324219 -16.050781 C 15.933594 -16.855469 18.753906 -16.910156 21.742188 -16.507812 L 21.742188 -16.277344 C 21.398438 -14.152344 21.167969 -12.023438 21.109375 -10.066406 Z M 21.109375 -10.066406 "/></g></g></g><g clip-path="url(#e853008c30)"><path fill="#737373" d="M 219.835938 245.324219 C 216.765625 245.324219 215.230469 243.660156 213.734375 242.050781 C 212.253906 240.457031 210.867188 238.960938 208.042969 238.960938 C 205.214844 238.960938 203.832031 240.457031 202.351562 242.050781 C 200.855469 243.660156 199.320312 245.324219 196.25 245.324219 C 193.179688 245.324219 191.644531 243.660156 190.148438 242.050781 C 188.667969 240.457031 187.285156 238.960938 184.457031 238.960938 C 181.632812 238.960938 180.246094 240.457031 178.765625 242.050781 C 177.269531 243.660156 175.734375 245.324219 172.664062 245.324219 C 169.59375 245.324219 168.058594 243.660156 166.5625 242.050781 C 165.082031 240.457031 163.699219 238.960938 160.871094 238.960938 C 158.046875 238.960938 156.660156 240.457031 155.183594 242.050781 C 153.683594 243.660156 152.148438 245.324219 149.078125 245.324219 C 146.011719 245.324219 144.476562 243.660156 142.976562 242.050781 C 141.5 240.457031 140.113281 238.960938 137.289062 238.960938 C 134.460938 238.960938 133.074219 240.457031 131.597656 242.050781 C 130.097656 243.660156 128.566406 245.324219 125.496094 245.324219 C 122.425781 245.324219 120.890625 243.660156 119.390625 242.050781 C 117.914062 240.457031 116.527344 238.960938 113.703125 238.960938 C 113.550781 238.960938 113.421875 238.828125 113.421875 238.679688 C 113.421875 238.53125 113.550781 238.398438 113.703125 238.398438 C 116.773438 238.398438 118.308594 240.066406 119.804688 241.675781 C 121.28125 243.265625 122.667969 244.761719 125.496094 244.761719 C 128.320312 244.761719 129.707031 243.265625 131.183594 241.675781 C 132.683594 240.066406 134.21875 238.398438 137.289062 238.398438 C 140.355469 238.398438 141.890625 240.066406 143.390625 241.675781 C 144.867188 243.265625 146.253906 244.761719 149.078125 244.761719 C 151.90625 244.761719 153.292969 243.265625 154.769531 241.675781 C 156.265625 240.066406 157.800781 238.398438 160.871094 238.398438 C 163.941406 238.398438 165.476562 240.066406 166.972656 241.675781 C 168.453125 243.265625 169.839844 244.761719 172.664062 244.761719 C 175.492188 244.761719 176.875 243.265625 178.355469 241.675781 C 179.851562 240.066406 181.386719 238.398438 184.457031 238.398438 C 187.527344 238.398438 189.0625 240.066406 190.558594 241.675781 C 192.039062 243.265625 193.421875 244.761719 196.25 244.761719 C 199.078125 244.761719 200.460938 243.265625 201.941406 241.675781 C 203.4375 240.066406 204.972656 238.398438 208.042969 238.398438 C 211.113281 238.398438 212.648438 240.066406 214.144531 241.675781 C 215.625 243.265625 217.007812 244.761719 219.835938 244.761719 C 222.660156 244.761719 224.046875 243.265625 225.523438 241.675781 C 227.023438 240.066406 228.558594 238.398438 231.628906 238.398438 C 231.777344 238.398438 231.910156 238.53125 231.910156 238.679688 C 231.910156 238.828125 231.777344 238.960938 231.628906 238.960938 C 228.800781 238.960938 227.414062 240.457031 225.9375 242.050781 C 224.441406 243.660156 222.90625 245.324219 219.835938 245.324219 Z M 219.835938 245.324219 " fill-opacity="1" fill-rule="nonzero"/></g></svg>