<svg xmlns="http://www.w3.org/2000/svg" xmlns:xlink="http://www.w3.org/1999/xlink" width="500" zoomAndPan="magnify" viewBox="0 0 375 374.999991" height="500" preserveAspectRatio="xMidYMid meet" version="1.0"><defs><g/><clipPath id="449dc03aff"><path d="M 67.273438 220.519531 L 240 220.519531 L 240 230.269531 L 67.273438 230.269531 Z M 67.273438 220.519531 " clip-rule="nonzero"/></clipPath></defs><g fill="#000000" fill-opacity="1"><g transform="translate(59.287373, 155.887725)"><g><path d="M 42.289062 -20.257812 L 40.363281 -20.335938 C 40.75 -17.871094 38.746094 -13.480469 34.894531 -13.480469 C 31.121094 -13.480469 26.730469 -19.488281 19.105469 -19.488281 C 13.789062 -19.488281 7.472656 -16.945312 4.082031 -10.554688 C 6.546875 -22.570312 18.640625 -19.179688 18.640625 -28.117188 L 18.640625 -52.226562 L 1.773438 -52.226562 L 1.773438 0 L 3.699219 0 C 3.699219 -3.699219 4.621094 -7.703125 10.015625 -7.703125 C 15.328125 -7.703125 17.101562 0.539062 28.578125 0.539062 C 43.292969 0.539062 43.753906 -13.328125 42.289062 -20.257812 Z M 42.289062 -20.257812 "/></g></g></g><g fill="#000000" fill-opacity="1"><g transform="translate(103.497017, 155.887725)"><g><path d="M 24.417969 -42.214844 C 10.628906 -42.214844 1.386719 -33.433594 1.386719 -20.875 C 1.386719 -8.242188 10.628906 0.539062 24.417969 0.539062 C 38.132812 0.539062 47.375 -8.242188 47.375 -20.875 C 47.375 -33.433594 38.132812 -42.214844 24.417969 -42.214844 Z M 35.359375 -3.542969 C 30.96875 -0.769531 25.191406 -6.933594 18.640625 -17.179688 C 12.09375 -27.5 9.011719 -35.359375 13.402344 -38.207031 C 17.792969 -40.980469 23.570312 -34.820312 30.121094 -24.496094 C 36.589844 -14.25 39.824219 -6.316406 35.359375 -3.542969 Z M 35.359375 -3.542969 "/></g></g></g><g fill="#000000" fill-opacity="1"><g transform="translate(152.250859, 155.887725)"><g><path d="M 17.5625 -31.507812 C 6.472656 -34.28125 8.242188 -40.289062 12.789062 -40.289062 C 18.101562 -40.289062 21.261719 -29.582031 27.347656 -29.582031 C 33.972656 -29.582031 35.433594 -37.976562 35.433594 -41.675781 L 33.433594 -41.675781 C 33.433594 -39.363281 30.890625 -38.207031 27.964844 -38.207031 C 22.570312 -38.207031 19.796875 -42.214844 12.789062 -42.214844 C 6.625 -42.214844 1.234375 -35.898438 1.464844 -29.273438 C 1.695312 -20.492188 9.398438 -15.636719 16.640625 -14.25 C 25.191406 -12.632812 27.964844 -9.320312 28.65625 -6.394531 C 29.273438 -3.699219 27.578125 -1.847656 25.652344 -1.695312 C 20.257812 -1.234375 20.335938 -14.40625 10.324219 -14.40625 C 2.15625 -14.40625 1.925781 -3.773438 1.925781 0 L 3.851562 0 C 3.851562 -2.851562 5.390625 -4.46875 8.628906 -4.46875 C 13.941406 -4.46875 15.945312 0.539062 22.957031 0.539062 C 32.660156 0.539062 36.207031 -6.703125 36.4375 -14.097656 C 36.746094 -23.878906 29.273438 -28.503906 17.5625 -31.507812 Z M 17.5625 -31.507812 "/></g></g></g><g fill="#000000" fill-opacity="1"><g transform="translate(190.067821, 155.887725)"><g><path d="M 23.570312 -28.117188 L 23.570312 -39.902344 L 35.050781 -39.902344 L 35.050781 -41.675781 L 23.570312 -41.675781 L 23.570312 -52.304688 L 21.722656 -52.304688 C 21.722656 -47.222656 17.5625 -41.675781 6.777344 -41.675781 L 1.386719 -41.675781 L 1.386719 -39.902344 L 6.777344 -39.902344 L 6.777344 -16.253906 C 6.777344 -3.003906 13.636719 0.539062 20.183594 0.539062 C 26.960938 0.539062 27.347656 -5.625 31.121094 -5.625 C 34.585938 -5.625 34.664062 -3.464844 34.664062 -0.078125 L 36.4375 -0.078125 C 37.515625 -8.550781 36.898438 -19.179688 26.882812 -19.179688 C 19.953125 -19.179688 18.027344 -9.859375 12.710938 -9.859375 C 9.550781 -9.859375 8.703125 -12.015625 9.011719 -14.097656 C 9.78125 -19.027344 23.570312 -18.179688 23.570312 -28.117188 Z M 23.570312 -28.117188 "/></g></g></g><g fill="#000000" fill-opacity="1"><g transform="translate(228.269884, 155.887725)"><g/></g></g><g fill="#000000" fill-opacity="1"><g transform="translate(248.603237, 155.887725)"><g><path d="M 18.640625 0 L 18.640625 -52.226562 L 1.773438 -52.226562 L 1.773438 0 Z M 18.640625 0 "/></g></g></g><g fill="#000000" fill-opacity="1"><g transform="translate(269.013614, 155.887725)"><g><path d="M 1.773438 -41.675781 L 1.773438 0 L 18.640625 0 L 18.640625 -32.277344 C 18.71875 -35.359375 19.335938 -37.667969 21.570312 -38.363281 C 26.113281 -39.824219 30.121094 -37.59375 27.730469 -21.800781 C 26.730469 -15.019531 25.960938 -8.398438 29.65625 -3.699219 C 36.207031 4.46875 49.53125 -1.464844 54.691406 -8.242188 L 53.539062 -9.476562 C 51.074219 -7.011719 48.53125 -6.472656 46.527344 -8.242188 C 43.523438 -10.863281 43.984375 -15.175781 44.910156 -21.339844 C 46.835938 -33.355469 39.980469 -42.214844 26.652344 -42.214844 C 20.722656 -42.214844 16.5625 -37.128906 12.015625 -36.050781 C 7.550781 -34.972656 3.699219 -35.433594 3.699219 -41.675781 Z M 1.773438 -41.675781 "/></g></g></g><g fill="#000000" fill-opacity="1"><g transform="translate(9.886463, 211.126353)"><g><path d="M 24.496094 -41.210938 C 18.257812 -52.074219 10.554688 -52.226562 3.773438 -52.226562 L 1.847656 -52.226562 L 1.847656 0 L 18.640625 0 L 18.640625 -1.464844 C 18.640625 -19.875 6.007812 -11.324219 4.003906 -43.214844 L 18.410156 -17.871094 C 25.652344 -5.160156 41.136719 -12.171875 41.136719 0 L 43.0625 0 L 43.0625 -52.226562 L 26.269531 -52.226562 L 26.269531 -50.765625 C 26.269531 -32.738281 38.207031 -40.132812 40.671875 -11.324219 C 39.671875 -13.710938 38.285156 -16.332031 36.511719 -19.644531 C 33.277344 -25.652344 28.503906 -34.046875 24.496094 -41.210938 Z M 24.496094 -41.210938 "/></g></g></g><g fill="#000000" fill-opacity="1"><g transform="translate(54.789303, 211.126353)"><g><path d="M 24.417969 -42.214844 C 10.628906 -42.214844 1.386719 -33.433594 1.386719 -20.875 C 1.386719 -8.242188 10.628906 0.539062 24.417969 0.539062 C 38.132812 0.539062 47.375 -8.242188 47.375 -20.875 C 47.375 -33.433594 38.132812 -42.214844 24.417969 -42.214844 Z M 35.359375 -3.542969 C 30.96875 -0.769531 25.191406 -6.933594 18.640625 -17.179688 C 12.09375 -27.5 9.011719 -35.359375 13.402344 -38.207031 C 17.792969 -40.980469 23.570312 -34.820312 30.121094 -24.496094 C 36.589844 -14.25 39.824219 -6.316406 35.359375 -3.542969 Z M 35.359375 -3.542969 "/></g></g></g><g fill="#000000" fill-opacity="1"><g transform="translate(103.543145, 211.126353)"><g><path d="M 17.5625 -31.507812 C 6.472656 -34.28125 8.242188 -40.289062 12.789062 -40.289062 C 18.101562 -40.289062 21.261719 -29.582031 27.347656 -29.582031 C 33.972656 -29.582031 35.433594 -37.976562 35.433594 -41.675781 L 33.433594 -41.675781 C 33.433594 -39.363281 30.890625 -38.207031 27.964844 -38.207031 C 22.570312 -38.207031 19.796875 -42.214844 12.789062 -42.214844 C 6.625 -42.214844 1.234375 -35.898438 1.464844 -29.273438 C 1.695312 -20.492188 9.398438 -15.636719 16.640625 -14.25 C 25.191406 -12.632812 27.964844 -9.320312 28.65625 -6.394531 C 29.273438 -3.699219 27.578125 -1.847656 25.652344 -1.695312 C 20.257812 -1.234375 20.335938 -14.40625 10.324219 -14.40625 C 2.15625 -14.40625 1.925781 -3.773438 1.925781 0 L 3.851562 0 C 3.851562 -2.851562 5.390625 -4.46875 8.628906 -4.46875 C 13.941406 -4.46875 15.945312 0.539062 22.957031 0.539062 C 32.660156 0.539062 36.207031 -6.703125 36.4375 -14.097656 C 36.746094 -23.878906 29.273438 -28.503906 17.5625 -31.507812 Z M 17.5625 -31.507812 "/></g></g></g><g fill="#000000" fill-opacity="1"><g transform="translate(141.360107, 211.126353)"><g><path d="M 23.570312 -28.117188 L 23.570312 -39.902344 L 35.050781 -39.902344 L 35.050781 -41.675781 L 23.570312 -41.675781 L 23.570312 -52.304688 L 21.722656 -52.304688 C 21.722656 -47.222656 17.5625 -41.675781 6.777344 -41.675781 L 1.386719 -41.675781 L 1.386719 -39.902344 L 6.777344 -39.902344 L 6.777344 -16.253906 C 6.777344 -3.003906 13.636719 0.539062 20.183594 0.539062 C 26.960938 0.539062 27.347656 -5.625 31.121094 -5.625 C 34.585938 -5.625 34.664062 -3.464844 34.664062 -0.078125 L 36.4375 -0.078125 C 37.515625 -8.550781 36.898438 -19.179688 26.882812 -19.179688 C 19.953125 -19.179688 18.027344 -9.859375 12.710938 -9.859375 C 9.550781 -9.859375 8.703125 -12.015625 9.011719 -14.097656 C 9.78125 -19.027344 23.570312 -18.179688 23.570312 -28.117188 Z M 23.570312 -28.117188 "/></g></g></g><g fill="#000000" fill-opacity="1"><g transform="translate(179.562171, 211.126353)"><g><path d="M 28.039062 -42.214844 C 19.179688 -42.214844 14.328125 -36.667969 9.476562 -36.667969 C 6.933594 -36.667969 6.085938 -38.824219 6.085938 -41.675781 L 4.082031 -41.675781 C 2.695312 -28.886719 5.855469 -24.882812 12.402344 -24.882812 C 22.417969 -24.882812 18.871094 -38.363281 23.957031 -39.824219 C 28.808594 -41.210938 31.199219 -37.824219 29.347656 -23.878906 C 27.347656 -24.109375 25.191406 -24.1875 22.800781 -24.1875 C 8.398438 -24.1875 1.386719 -19.953125 1.386719 -11.941406 C 1.386719 -4.003906 7.625 0.308594 21.339844 0.308594 C 27.808594 0.308594 29.8125 -1.773438 30.273438 -4.699219 C 36.28125 4.851562 50.6875 -1.078125 56.078125 -8.242188 L 54.925781 -9.476562 C 52.460938 -7.011719 49.917969 -6.472656 47.914062 -8.242188 C 44.910156 -10.863281 45.296875 -15.175781 46.296875 -21.339844 C 48.222656 -33.355469 41.289062 -42.214844 28.039062 -42.214844 Z M 28.269531 -13.480469 C 28.269531 -8.78125 28.886719 -3.464844 27.039062 -2.617188 C 24.035156 -1.15625 20.722656 -3.390625 17.949219 -10.398438 C 15.792969 -15.714844 16.175781 -20.027344 19.179688 -21.492188 C 21.339844 -22.570312 25.113281 -22.648438 29.117188 -22.109375 L 29.117188 -21.800781 C 28.65625 -18.949219 28.347656 -16.101562 28.269531 -13.480469 Z M 28.269531 -13.480469 "/></g></g></g><g fill="#000000" fill-opacity="1"><g transform="translate(227.545809, 211.126353)"><g><path d="M 1.539062 -52.226562 L 1.539062 0 L 18.410156 0 L 18.410156 -39.824219 C 18.410156 -49.839844 3.464844 -41.519531 3.464844 -52.226562 Z M 1.539062 -52.226562 "/></g></g></g><g fill="#000000" fill-opacity="1"><g transform="translate(247.494061, 211.126353)"><g><path d="M 47.914062 6.703125 C 47.761719 9.089844 46.683594 10.628906 43.523438 10.628906 C 38.207031 10.628906 27.578125 1.386719 14.714844 1.386719 C 4.699219 1.386719 1.386719 12.015625 2.542969 20.414062 L 4.3125 20.414062 C 4.3125 17.023438 5.46875 14.945312 8.859375 14.945312 C 18.179688 14.945312 27.421875 21.03125 35.050781 21.03125 C 42.675781 21.03125 50.300781 15.5625 50.300781 7.011719 C 50.300781 -4.160156 40.671875 -14.636719 26.882812 -11.476562 C 19.953125 -9.859375 12.632812 -6.394531 12.632812 -10.089844 C 12.632812 -13.558594 20.105469 -13.636719 23.496094 -13.636719 L 24.574219 -13.636719 C 38.980469 -13.636719 47.835938 -18.640625 47.835938 -27.964844 C 47.835938 -31.042969 46.757812 -34.046875 44.757812 -36.050781 C 42.523438 -38.902344 44.757812 -41.675781 50.765625 -40.363281 L 50.765625 -42.058594 C 45.0625 -48.992188 36.898438 -45.527344 38.671875 -39.980469 C 34.894531 -41.445312 30.195312 -42.214844 24.574219 -42.214844 C 10.167969 -42.214844 1.308594 -37.285156 1.308594 -27.964844 C 1.308594 -20.875 6.394531 -16.332031 15.019531 -14.480469 C 12.480469 -13.636719 10.785156 -12.09375 10.785156 -9.320312 C 10.785156 -3.390625 19.414062 1.308594 29.65625 2.234375 C 39.519531 3.160156 48.375 1 47.914062 6.703125 Z M 31.96875 -16.175781 C 28.578125 -14.480469 25.265625 -15.945312 19.953125 -24.34375 C 15.40625 -31.660156 13.710938 -38.054688 17.179688 -39.75 C 20.644531 -41.367188 23.957031 -39.902344 29.195312 -31.507812 C 33.742188 -24.265625 35.433594 -17.871094 31.96875 -16.175781 Z M 31.96875 -16.175781 "/></g></g></g><g fill="#000000" fill-opacity="1"><g transform="translate(296.710028, 211.126353)"><g><path d="M 1.773438 0 L 18.640625 0 L 18.640625 -26.5 C 18.640625 -31.96875 14.019531 -31.96875 9.9375 -32.585938 C 5.546875 -33.277344 3.003906 -34.585938 1.773438 -36.207031 Z M 20.105469 -43.601562 C 20.105469 -49.070312 16.175781 -52.84375 10.246094 -52.84375 C 4.3125 -52.84375 0.386719 -49.070312 0.386719 -43.601562 C 0.386719 -38.207031 4.3125 -34.433594 10.246094 -34.433594 C 16.175781 -34.433594 20.105469 -38.207031 20.105469 -43.601562 Z M 20.105469 -43.601562 "/></g></g></g><g fill="#000000" fill-opacity="1"><g transform="translate(317.120405, 211.126353)"><g><path d="M 28.039062 -42.214844 C 19.179688 -42.214844 14.328125 -36.667969 9.476562 -36.667969 C 6.933594 -36.667969 6.085938 -38.824219 6.085938 -41.675781 L 4.082031 -41.675781 C 2.695312 -28.886719 5.855469 -24.882812 12.402344 -24.882812 C 22.417969 -24.882812 18.871094 -38.363281 23.957031 -39.824219 C 28.808594 -41.210938 31.199219 -37.824219 29.347656 -23.878906 C 27.347656 -24.109375 25.191406 -24.1875 22.800781 -24.1875 C 8.398438 -24.1875 1.386719 -19.953125 1.386719 -11.941406 C 1.386719 -4.003906 7.625 0.308594 21.339844 0.308594 C 27.808594 0.308594 29.8125 -1.773438 30.273438 -4.699219 C 36.28125 4.851562 50.6875 -1.078125 56.078125 -8.242188 L 54.925781 -9.476562 C 52.460938 -7.011719 49.917969 -6.472656 47.914062 -8.242188 C 44.910156 -10.863281 45.296875 -15.175781 46.296875 -21.339844 C 48.222656 -33.355469 41.289062 -42.214844 28.039062 -42.214844 Z M 28.269531 -13.480469 C 28.269531 -8.78125 28.886719 -3.464844 27.039062 -2.617188 C 24.035156 -1.15625 20.722656 -3.390625 17.949219 -10.398438 C 15.792969 -15.714844 16.175781 -20.027344 19.179688 -21.492188 C 21.339844 -22.570312 25.113281 -22.648438 29.117188 -22.109375 L 29.117188 -21.800781 C 28.65625 -18.949219 28.347656 -16.101562 28.269531 -13.480469 Z M 28.269531 -13.480469 "/></g></g></g><g clip-path="url(#449dc03aff)"><path fill="#000000" d="M 222.4375 230.269531 C 217.976562 230.269531 215.746094 227.921875 213.570312 225.65625 C 211.421875 223.417969 209.410156 221.308594 205.304688 221.308594 C 201.195312 221.308594 199.183594 223.417969 197.035156 225.65625 C 194.859375 227.921875 192.628906 230.269531 188.167969 230.269531 C 183.707031 230.269531 181.476562 227.921875 179.300781 225.65625 C 177.152344 223.417969 175.140625 221.308594 171.035156 221.308594 C 166.925781 221.308594 164.914062 223.417969 162.765625 225.65625 C 160.589844 227.921875 158.359375 230.269531 153.898438 230.269531 C 149.4375 230.269531 147.207031 227.921875 145.03125 225.65625 C 142.882812 223.417969 140.871094 221.308594 136.761719 221.308594 C 132.65625 221.308594 130.644531 223.417969 128.496094 225.65625 C 126.320312 227.921875 124.089844 230.269531 119.628906 230.269531 C 115.167969 230.269531 112.9375 227.921875 110.761719 225.65625 C 108.613281 223.417969 106.597656 221.308594 102.492188 221.308594 C 98.386719 221.308594 96.371094 223.417969 94.222656 225.65625 C 92.046875 227.921875 89.816406 230.269531 85.355469 230.269531 C 80.898438 230.269531 78.667969 227.921875 76.492188 225.65625 C 74.339844 223.417969 72.328125 221.308594 68.222656 221.308594 C 68.003906 221.308594 67.8125 221.125 67.8125 220.914062 C 67.8125 220.703125 68.003906 220.519531 68.222656 220.519531 C 72.683594 220.519531 74.914062 222.863281 77.089844 225.128906 C 79.238281 227.371094 81.25 229.476562 85.355469 229.476562 C 89.464844 229.476562 91.476562 227.371094 93.625 225.128906 C 95.800781 222.863281 98.03125 220.519531 102.492188 220.519531 C 106.953125 220.519531 109.183594 222.863281 111.359375 225.128906 C 113.507812 227.371094 115.519531 229.476562 119.628906 229.476562 C 123.734375 229.476562 125.746094 227.371094 127.894531 225.128906 C 130.070312 222.863281 132.300781 220.519531 136.761719 220.519531 C 141.222656 220.519531 143.453125 222.863281 145.628906 225.128906 C 147.777344 227.371094 149.792969 229.476562 153.898438 229.476562 C 158.003906 229.476562 160.019531 227.371094 162.167969 225.128906 C 164.34375 222.863281 166.574219 220.519531 171.035156 220.519531 C 175.492188 220.519531 177.722656 222.863281 179.898438 225.128906 C 182.046875 227.371094 184.0625 229.476562 188.167969 229.476562 C 192.277344 229.476562 194.289062 227.371094 196.4375 225.128906 C 198.613281 222.863281 200.84375 220.519531 205.304688 220.519531 C 209.765625 220.519531 211.996094 222.863281 214.171875 225.128906 C 216.320312 227.371094 218.332031 229.476562 222.4375 229.476562 C 226.546875 229.476562 228.558594 227.371094 230.707031 225.128906 C 232.882812 222.863281 235.113281 220.519531 239.574219 220.519531 C 239.792969 220.519531 239.980469 220.703125 239.980469 220.914062 C 239.980469 221.125 239.792969 221.308594 239.574219 221.308594 C 235.46875 221.308594 233.453125 223.417969 231.304688 225.65625 C 229.128906 227.921875 226.898438 230.269531 222.4375 230.269531 Z M 222.4375 230.269531 " fill-opacity="1" fill-rule="nonzero"/></g></svg>