<svg xmlns="http://www.w3.org/2000/svg" xmlns:xlink="http://www.w3.org/1999/xlink" width="500" zoomAndPan="magnify" viewBox="0 0 375 374.999991" height="500" preserveAspectRatio="xMidYMid meet" version="1.0"><defs><g/></defs><g fill="#737373" fill-opacity="1"><g transform="translate(130.018198, 199.010574)"><g><path d="M 0.847656 -22.546875 C 0.847656 -16.335938 5.554688 -14.027344 12.003906 -12.144531 C 19.960938 -9.792969 24.429688 -6.027344 22.21875 -4.046875 C 18.265625 -0.566406 15.816406 -11.628906 8.804688 -11.628906 C 1.835938 -11.628906 0.375 -5.132812 1.082031 0.046875 L 2.117188 0.046875 C 2.117188 -2.023438 2.589844 -3.34375 4.941406 -3.34375 C 7.296875 -3.34375 10.355469 0.328125 15.015625 0.328125 C 21.089844 0.328125 25.703125 -4.332031 25.703125 -9.601562 C 25.703125 -16.144531 17.464844 -18.96875 13.511719 -20.101562 C 5.554688 -22.3125 1.882812 -25.9375 4.140625 -27.820312 C 8.285156 -31.257812 9.886719 -20.289062 16.898438 -20.289062 C 23.914062 -20.289062 25.324219 -26.785156 24.667969 -31.964844 L 23.582031 -31.964844 C 23.582031 -29.890625 23.113281 -28.574219 20.757812 -28.574219 C 18.453125 -28.574219 16.003906 -32.199219 11.34375 -32.199219 C 5.367188 -32.199219 0.847656 -27.726562 0.847656 -22.546875 Z M 0.847656 -22.546875 "/></g></g></g><g fill="#737373" fill-opacity="1"><g transform="translate(156.566295, 199.010574)"><g><path d="M 10.167969 -31.914062 C 10.167969 -25.371094 1.082031 -30.457031 1.082031 -24.335938 L 1.082031 0 L 11.390625 0 L 11.390625 -19.722656 C 11.4375 -21.605469 11.816406 -23.019531 13.179688 -23.441406 C 15.957031 -24.335938 18.40625 -22.972656 16.945312 -13.320312 C 16.335938 -9.179688 15.863281 -5.132812 18.125 -2.257812 C 22.078125 2.730469 30.269531 -0.894531 33.421875 -5.035156 L 32.667969 -5.789062 C 31.210938 -4.285156 29.65625 -3.953125 28.433594 -5.035156 C 26.597656 -6.636719 26.832031 -9.273438 27.445312 -13.039062 C 28.621094 -20.382812 24.382812 -25.796875 16.289062 -25.796875 C 14.359375 -25.796875 12.851562 -24.996094 11.390625 -24.148438 L 11.390625 -31.914062 Z M 10.167969 -31.914062 "/></g></g></g><g fill="#737373" fill-opacity="1"><g transform="translate(184.997233, 199.010574)"><g><path d="M 14.921875 -25.796875 C 6.496094 -25.796875 0.847656 -20.429688 0.847656 -12.757812 C 0.847656 -5.035156 6.496094 0.328125 14.921875 0.328125 C 23.300781 0.328125 28.949219 -5.035156 28.949219 -12.757812 C 28.949219 -20.429688 23.300781 -25.796875 14.921875 -25.796875 Z M 21.605469 -2.164062 C 18.921875 -0.472656 15.394531 -4.238281 11.390625 -10.496094 C 7.390625 -16.804688 5.507812 -21.605469 8.191406 -23.347656 C 10.875 -25.042969 14.40625 -21.277344 18.40625 -14.96875 C 22.359375 -8.707031 24.335938 -3.859375 21.605469 -2.164062 Z M 21.605469 -2.164062 "/></g></g></g><g fill="#737373" fill-opacity="1"><g transform="translate(214.793234, 199.010574)"><g><path d="M 2.304688 12.332031 C 2.304688 5.789062 11.390625 10.828125 11.390625 4.753906 L 11.390625 -1.882812 C 13.320312 -0.28125 15.394531 0.328125 16.757812 0.328125 C 22.078125 0.328125 29.328125 -5.035156 29.328125 -12.757812 C 29.328125 -20.429688 23.820312 -25.796875 15.441406 -25.796875 C 11.628906 -25.796875 8.425781 -21.9375 5.601562 -21.9375 C 4 -21.9375 2.304688 -22.078125 2.304688 -25.46875 L 1.082031 -25.46875 L 1.082031 12.332031 Z M 11.390625 -18.027344 C 11.390625 -21.136719 11.34375 -23.253906 12.617188 -23.914062 C 14.734375 -24.996094 18.59375 -19.914062 19.914062 -14.359375 C 21.183594 -8.945312 21.652344 -3.859375 18.96875 -2.164062 C 16.898438 -0.847656 13.933594 -1.554688 11.390625 -4.660156 Z M 11.390625 -18.027344 "/></g></g></g></svg>