<svg xmlns="http://www.w3.org/2000/svg" xmlns:xlink="http://www.w3.org/1999/xlink" width="500" zoomAndPan="magnify" viewBox="0 0 375 374.999991" height="500" preserveAspectRatio="xMidYMid meet" version="1.0"><defs><g/><clipPath id="8fbfa6a550"><path d="M 133.039062 180.566406 L 252 180.566406 L 252 187.316406 L 133.039062 187.316406 Z M 133.039062 180.566406 " clip-rule="nonzero"/></clipPath></defs><rect x="-37.5" width="450" fill="#ffffff" y="-37.499999" height="449.999989" fill-opacity="1"/><rect x="-37.5" width="450" fill="#ffffff" y="-37.499999" height="449.999989" fill-opacity="1"/><g fill="#737373" fill-opacity="1"><g transform="translate(114.641009, 136.768256)"><g><path d="M 9.71875 -33.644531 L 8.71875 -32.609375 C 10.28125 -31.597656 11.734375 -28.300781 9.820312 -26.152344 C 7.945312 -24.046875 2.414062 -24.585938 -1.375 -20.332031 C -4.015625 -17.371094 -5.734375 -12.585938 -3.855469 -7.519531 C -9.328125 -14.863281 -1.429688 -19.921875 -6.414062 -24.363281 L -19.855469 -36.339844 L -28.238281 -26.9375 L 0.878906 -0.988281 L 1.835938 -2.0625 C -0.222656 -3.898438 -2 -6.402344 0.679688 -9.410156 C 3.320312 -12.375 8.796875 -9.265625 14.5 -15.664062 C 21.808594 -23.867188 14.308594 -31.015625 9.71875 -33.644531 Z M 9.71875 -33.644531 "/></g></g></g><g fill="#737373" fill-opacity="1"><g transform="translate(133.149273, 114.516612)"><g><path d="M 0.675781 -36.410156 C -8.332031 -31.421875 -11.191406 -22.339844 -6.648438 -14.136719 C -2.078125 -5.886719 7.140625 -3.496094 16.144531 -8.484375 C 25.101562 -13.445312 27.964844 -22.527344 23.390625 -30.78125 C 18.847656 -38.980469 9.632812 -41.375 0.675781 -36.410156 Z M 21.8125 -15.109375 C 19.949219 -11.710938 13.945312 -13.644531 5.960938 -17.96875 C -2.050781 -22.339844 -6.90625 -26.359375 -5.070312 -29.808594 C -3.207031 -33.210938 2.796875 -31.273438 10.808594 -26.902344 C 18.746094 -22.550781 23.730469 -18.539062 21.8125 -15.109375 Z M 21.8125 -15.109375 "/></g></g></g><g fill="#737373" fill-opacity="1"><g transform="translate(161.501879, 98.82424)"><g><path d="M 8.382812 -25.597656 C -0.144531 -26.050781 0.296875 -30.707031 3.628906 -31.355469 C 7.527344 -32.113281 11.367188 -24.714844 15.828125 -25.582031 C 20.683594 -26.527344 20.5625 -32.890625 20.035156 -35.601562 L 18.566406 -35.316406 C 18.894531 -33.621094 17.195312 -32.410156 15.050781 -31.992188 C 11.097656 -31.226562 8.492188 -33.765625 3.355469 -32.765625 C -1.160156 -31.886719 -4.214844 -26.488281 -3.101562 -21.667969 C -1.679688 -15.261719 4.660156 -12.800781 10.164062 -12.820312 C 16.664062 -12.851562 19.167969 -10.820312 20.09375 -8.773438 C 20.929688 -6.882812 19.953125 -5.285156 18.5625 -4.898438 C 14.675781 -3.792969 12.855469 -13.457031 5.511719 -12.03125 C -0.472656 -10.867188 0.875 -3.042969 1.410156 -0.273438 L 2.824219 -0.550781 C 2.417969 -2.636719 3.316406 -4.042969 5.6875 -4.503906 C 9.582031 -5.261719 11.765625 -1.878906 16.902344 -2.878906 C 24.019531 -4.261719 25.585938 -10.074219 24.699219 -15.527344 C 23.53125 -22.742188 17.394531 -25.066406 8.382812 -25.597656 Z M 8.382812 -25.597656 "/></g></g></g><g fill="#737373" fill-opacity="1"><g transform="translate(185.701043, 93.604277)"><g><path d="M 19.292969 -19.457031 L 20.027344 -28.226562 L 28.566406 -27.511719 L 28.675781 -28.832031 L 20.136719 -29.546875 L 20.796875 -37.457031 L 19.421875 -37.570312 C 19.105469 -33.789062 15.664062 -29.917969 7.640625 -30.589844 L 3.625 -30.925781 L 3.515625 -29.609375 L 7.527344 -29.273438 L 6.054688 -11.671875 C 5.230469 -1.8125 10.113281 1.25 14.984375 1.65625 C 20.03125 2.078125 20.699219 -2.480469 23.507812 -2.246094 C 26.089844 -2.03125 26.011719 -0.421875 25.800781 2.101562 L 27.121094 2.210938 C 28.449219 -4.027344 28.652344 -11.976562 21.199219 -12.601562 C 16.042969 -13.03125 14.027344 -6.214844 10.074219 -6.546875 C 7.722656 -6.742188 7.226562 -8.402344 7.585938 -9.929688 C 8.464844 -13.550781 18.671875 -12.0625 19.292969 -19.457031 Z M 19.292969 -19.457031 "/></g></g></g><g fill="#737373" fill-opacity="1"><g transform="translate(211.27139, 96.153736)"><g/></g></g><g fill="#737373" fill-opacity="1"><g transform="translate(223.967426, 99.866697)"><g><path d="M 12.574219 5.972656 L 29.304688 -29.257812 L 17.925781 -34.664062 L 1.195312 0.566406 Z M 12.574219 5.972656 "/></g></g></g><g fill="#737373" fill-opacity="1"><g transform="translate(235.713644, 103.712795)"><g><path d="M 20.75 -23.230469 L 1.023438 0.839844 L 10.765625 8.824219 L 26.046875 -9.820312 C 27.546875 -11.5625 28.996094 -12.605469 30.617188 -11.949219 C 33.933594 -10.640625 35.191406 -7.457031 26.335938 0.535156 C 22.550781 3.976562 18.96875 7.4375 18.878906 11.902344 C 18.796875 19.71875 29.300781 22.601562 35.492188 21.128906 L 35.40625 19.867188 C 32.816406 20.125 31.09375 19.234375 30.773438 17.261719 C 30.28125 14.328125 32.589844 12.054688 36.039062 8.933594 C 42.839844 2.902344 43.074219 -5.457031 35.375 -11.765625 C 31.949219 -14.574219 27.140625 -13.605469 24.003906 -15.132812 C 20.914062 -16.625 18.910156 -18.714844 21.863281 -22.320312 Z M 20.75 -23.230469 "/></g></g></g><g fill="#737373" fill-opacity="1"><g transform="translate(259.637042, 124.356379)"><g/></g></g><g clip-path="url(#8fbfa6a550)"><path fill="#737373" d="M 239.820312 187.492188 C 236.75 187.492188 235.214844 185.824219 233.71875 184.214844 C 232.242188 182.625 230.855469 181.128906 228.027344 181.128906 C 225.203125 181.128906 223.816406 182.625 222.339844 184.214844 C 220.839844 185.824219 219.304688 187.492188 216.234375 187.492188 C 213.167969 187.492188 211.632812 185.824219 210.132812 184.214844 C 208.65625 182.625 207.269531 181.128906 204.445312 181.128906 C 201.617188 181.128906 200.230469 182.625 198.753906 184.214844 C 197.253906 185.824219 195.722656 187.492188 192.652344 187.492188 C 189.582031 187.492188 188.046875 185.824219 186.550781 184.214844 C 185.070312 182.625 183.683594 181.128906 180.859375 181.128906 C 178.03125 181.128906 176.648438 182.625 175.167969 184.214844 C 173.671875 185.824219 172.136719 187.492188 169.066406 187.492188 C 165.996094 187.492188 164.460938 185.824219 162.964844 184.214844 C 161.484375 182.625 160.101562 181.128906 157.273438 181.128906 C 154.445312 181.128906 153.0625 182.625 151.582031 184.214844 C 150.085938 185.824219 148.550781 187.492188 145.480469 187.492188 C 142.410156 187.492188 140.875 185.824219 139.378906 184.214844 C 137.898438 182.625 136.515625 181.128906 133.6875 181.128906 C 133.539062 181.128906 133.40625 180.996094 133.40625 180.847656 C 133.40625 180.695312 133.539062 180.566406 133.6875 180.566406 C 136.757812 180.566406 138.292969 182.230469 139.789062 183.839844 C 141.269531 185.433594 142.65625 186.929688 145.480469 186.929688 C 148.308594 186.929688 149.691406 185.433594 151.171875 183.839844 C 152.667969 182.230469 154.203125 180.566406 157.273438 180.566406 C 160.34375 180.566406 161.878906 182.230469 163.375 183.839844 C 164.855469 185.433594 166.238281 186.929688 169.066406 186.929688 C 171.890625 186.929688 173.277344 185.433594 174.757812 183.839844 C 176.253906 182.230469 177.789062 180.566406 180.859375 180.566406 C 183.929688 180.566406 185.464844 182.230469 186.960938 183.839844 C 188.4375 185.433594 189.824219 186.929688 192.652344 186.929688 C 195.476562 186.929688 196.863281 185.433594 198.339844 183.839844 C 199.839844 182.230469 201.375 180.566406 204.445312 180.566406 C 207.511719 180.566406 209.046875 182.230469 210.546875 183.839844 C 212.023438 185.433594 213.410156 186.929688 216.234375 186.929688 C 219.0625 186.929688 220.449219 185.433594 221.925781 183.839844 C 223.425781 182.230469 224.957031 180.566406 228.027344 180.566406 C 231.097656 180.566406 232.632812 182.230469 234.128906 183.839844 C 235.609375 185.433594 236.996094 186.929688 239.820312 186.929688 C 242.648438 186.929688 244.03125 185.433594 245.511719 183.839844 C 247.007812 182.230469 248.542969 180.566406 251.613281 180.566406 C 251.761719 180.566406 251.894531 180.695312 251.894531 180.847656 C 251.894531 180.996094 251.761719 181.128906 251.613281 181.128906 C 248.789062 181.128906 247.402344 182.625 245.921875 184.214844 C 244.425781 185.824219 242.890625 187.492188 239.820312 187.492188 Z M 239.820312 187.492188 " fill-opacity="1" fill-rule="nonzero"/></g><g fill="#737373" fill-opacity="1"><g transform="translate(77.960641, 215.354835)"><g><path d="M 35.320312 5.851562 C 41.183594 -1.4375 39.195312 -6.839844 37.355469 -11.554688 L 36.832031 -12.894531 L 0.503906 1.285156 L 5.0625 12.96875 L 6.078125 12.570312 C 18.886719 7.570312 9.507812 1.105469 31.148438 -8.949219 L 17.429688 7.953125 C 10.554688 16.441406 19.636719 25.308594 11.167969 28.617188 L 11.691406 29.953125 L 48.023438 15.773438 L 43.464844 4.09375 L 42.445312 4.488281 C 29.90625 9.382812 38.292969 15.683594 18.921875 25.21875 C 20.308594 23.875 21.753906 22.199219 23.578125 20.066406 C 26.878906 16.183594 31.425781 10.582031 35.320312 5.851562 Z M 35.320312 5.851562 "/></g></g></g><g fill="#737373" fill-opacity="1"><g transform="translate(92.535513, 251.023116)"><g><path d="M 35.78125 -6.777344 C 29.054688 -14.574219 19.582031 -15.519531 12.480469 -9.398438 C 5.335938 -3.234375 4.878906 6.273438 11.605469 14.070312 C 18.292969 21.824219 27.765625 22.769531 34.910156 16.609375 C 42.011719 10.484375 42.46875 0.976562 35.78125 -6.777344 Z M 19.246094 18.265625 C 15.539062 17.136719 16.207031 10.863281 18.804688 2.164062 C 21.449219 -6.574219 24.390625 -12.148438 28.144531 -11.054688 C 31.851562 -9.921875 31.1875 -3.652344 28.542969 5.085938 C 25.902344 13.742188 22.996094 19.441406 19.246094 18.265625 Z M 19.246094 18.265625 "/></g></g></g><g fill="#737373" fill-opacity="1"><g transform="translate(120.239138, 281.080556)"><g><path d="M 23.417969 -13.3125 C 17.410156 -19.378906 20.867188 -22.53125 23.769531 -20.769531 C 27.160156 -18.710938 25.03125 -10.652344 28.917969 -8.292969 C 33.144531 -5.726562 37.332031 -10.523438 38.765625 -12.882812 L 37.484375 -13.65625 C 36.589844 -12.183594 34.519531 -12.429688 32.652344 -13.5625 C 29.207031 -15.652344 28.988281 -19.285156 24.515625 -22 C 20.578125 -24.386719 14.691406 -22.441406 12.273438 -18.121094 C 9.019531 -12.425781 12.058594 -6.34375 16.144531 -2.652344 C 20.976562 1.691406 21.464844 4.878906 20.773438 7.015625 C 20.121094 8.976562 18.324219 9.5 17.035156 8.855469 C 13.410156 7.058594 18.5625 -1.320312 12.167969 -5.199219 C 6.957031 -8.363281 2.691406 -1.664062 1.230469 0.746094 L 2.460938 1.492188 C 3.5625 -0.328125 5.171875 -0.765625 7.238281 0.488281 C 10.632812 2.546875 9.972656 6.519531 14.445312 9.234375 C 20.644531 12.996094 25.710938 9.746094 28.722656 5.113281 C 32.707031 -1.015625 29.726562 -6.859375 23.417969 -13.3125 Z M 23.417969 -13.3125 "/></g></g></g><g fill="#737373" fill-opacity="1"><g transform="translate(148.041351, 297.329088)"><g><path d="M 22.5625 -15.546875 L 24.90625 -24.03125 L 33.167969 -21.746094 L 33.519531 -23.019531 L 25.257812 -25.304688 L 27.375 -32.957031 L 26.042969 -33.324219 C 25.03125 -29.664062 20.933594 -26.5 13.171875 -28.648438 L 9.289062 -29.71875 L 8.9375 -28.445312 L 12.820312 -27.371094 L 8.113281 -10.351562 C 5.476562 -0.8125 9.707031 3.101562 14.417969 4.402344 C 19.296875 5.753906 20.800781 1.394531 23.519531 2.144531 C 26.011719 2.835938 25.640625 4.402344 24.964844 6.84375 L 26.242188 7.195312 C 28.703125 1.308594 30.375 -6.464844 23.167969 -8.457031 C 18.175781 -9.835938 14.9375 -3.511719 11.109375 -4.566406 C 8.835938 -5.195312 8.65625 -6.917969 9.292969 -8.351562 C 10.828125 -11.75 20.582031 -8.394531 22.5625 -15.546875 Z M 22.5625 -15.546875 "/></g></g></g><g fill="#737373" fill-opacity="1"><g transform="translate(180.024143, 306.01531)"><g><path d="M 19.574219 -32.386719 C 12.964844 -32.105469 9.519531 -27.8125 5.898438 -27.660156 C 4.003906 -27.578125 3.300781 -29.160156 3.210938 -31.285156 L 1.71875 -31.222656 C 1.089844 -21.636719 3.574219 -18.75 8.460938 -18.957031 C 15.929688 -19.277344 12.855469 -29.222656 16.605469 -30.476562 C 20.179688 -31.667969 22.070312 -29.214844 21.136719 -18.753906 C 19.632812 -18.859375 18.023438 -18.847656 16.238281 -18.773438 C 5.492188 -18.3125 0.398438 -14.929688 0.652344 -8.953125 C 0.90625 -3.03125 5.699219 -0.0117188 15.929688 -0.449219 C 20.757812 -0.65625 22.183594 -2.273438 22.4375 -4.472656 C 27.222656 2.464844 37.78125 -2.421875 41.578125 -7.9375 L 40.675781 -8.820312 C 38.914062 -6.902344 37.035156 -6.417969 35.484375 -7.675781 C 33.160156 -9.535156 33.308594 -12.765625 33.859375 -17.394531 C 34.914062 -26.421875 29.457031 -32.8125 19.574219 -32.386719 Z M 20.664062 -10.960938 C 20.8125 -7.453125 21.441406 -3.507812 20.089844 -2.816406 C 17.894531 -1.628906 15.351562 -3.191406 13.058594 -8.332031 C 11.28125 -12.226562 11.429688 -15.457031 13.625 -16.644531 C 15.199219 -17.519531 18.011719 -17.699219 21.019531 -17.421875 L 21.027344 -17.191406 C 20.773438 -15.050781 20.636719 -12.914062 20.664062 -10.960938 Z M 20.664062 -10.960938 "/></g></g></g><g fill="#737373" fill-opacity="1"><g transform="translate(219.101898, 302.633361)"><g><path d="M -10.011719 -37.710938 L 1.101562 -0.328125 L 13.179688 -3.917969 L 4.703125 -32.425781 C 2.570312 -39.59375 -6.355469 -30.457031 -8.632812 -38.121094 Z M -10.011719 -37.710938 "/></g></g></g><g fill="#737373" fill-opacity="1"><g transform="translate(237.23143, 298.187197)"><g><path d="M 33.265625 -14.09375 C 34.082031 -12.503906 33.984375 -11.105469 31.960938 -9.890625 C 28.554688 -7.851562 18.199219 -9.695312 9.957031 -4.757812 C 3.542969 -0.914062 5.5 7.167969 9.460938 12.101562 L 10.597656 11.421875 C 9.296875 9.25 9.238281 7.472656 11.410156 6.171875 C 17.378906 2.597656 25.636719 2.949219 30.523438 0.0195312 C 35.410156 -2.90625 38.195312 -9.335938 34.914062 -14.8125 C 30.628906 -21.96875 20.4375 -24.984375 12.816406 -17.667969 C 8.996094 -13.972656 5.640625 -8.945312 4.21875 -11.3125 C 2.890625 -13.53125 7.648438 -16.449219 9.820312 -17.75 L 10.507812 -18.164062 C 19.738281 -23.691406 23.492188 -30.300781 19.914062 -36.269531 C 18.730469 -38.246094 16.886719 -39.753906 14.835938 -40.269531 C 12.3125 -41.238281 12.679688 -43.871094 17.03125 -45.339844 L 16.378906 -46.425781 C 10.066406 -48.679688 6.167969 -43.324219 9.429688 -40.449219 C 6.449219 -39.941406 3.144531 -38.628906 -0.457031 -36.472656 C -9.6875 -30.945312 -13.46875 -24.386719 -9.890625 -18.414062 C -7.171875 -13.875 -2.171875 -12.914062 4.066406 -15.042969 C 2.761719 -13.523438 2.265625 -11.886719 3.332031 -10.109375 C 5.609375 -6.308594 12.9375 -6.609375 19.855469 -9.949219 C 26.527344 -13.140625 31.375 -17.921875 33.265625 -14.09375 Z M 14.269531 -22.628906 C 12.75 -20.246094 10.066406 -19.910156 3.441406 -23.25 C -2.28125 -26.195312 -5.820312 -29.640625 -4.25 -32.054688 C -2.648438 -34.421875 0.0351562 -34.753906 6.613281 -31.386719 C 12.300781 -28.492188 15.839844 -25.046875 14.269531 -22.628906 Z M 14.269531 -22.628906 "/></g></g></g><g fill="#737373" fill-opacity="1"><g transform="translate(270.780712, 275.991632)"><g><path d="M 0.929688 -0.941406 L 9.777344 -9.910156 L -4.308594 -23.808594 C -7.214844 -26.675781 -9.640625 -24.21875 -12.109375 -22.371094 C -14.78125 -20.402344 -16.808594 -19.738281 -18.316406 -19.929688 Z M -12.632812 -33.554688 C -15.539062 -36.421875 -19.605469 -36.3125 -22.71875 -33.160156 C -25.828125 -30.007812 -25.882812 -25.941406 -22.976562 -23.070312 C -20.109375 -20.242188 -16.042969 -20.351562 -12.929688 -23.503906 C -9.820312 -26.660156 -9.765625 -30.726562 -12.632812 -33.554688 Z M -12.632812 -33.554688 "/></g></g></g><g fill="#737373" fill-opacity="1"><g transform="translate(284.666321, 263.093525)"><g><path d="M -16.589844 -34.015625 C -19.9375 -28.308594 -18.199219 -23.085938 -20.035156 -19.960938 C -20.996094 -18.324219 -22.703125 -18.59375 -24.539062 -19.671875 L -25.296875 -18.382812 C -17.585938 -12.65625 -13.8125 -13.175781 -11.335938 -17.390625 C -7.550781 -23.839844 -17.574219 -26.65625 -16.59375 -30.480469 C -15.652344 -34.132812 -12.566406 -34.386719 -4.285156 -27.929688 C -5.191406 -26.726562 -6.058594 -25.367188 -6.960938 -23.828125 C -12.402344 -14.550781 -12.324219 -8.433594 -7.164062 -5.40625 C -2.054688 -2.40625 3.082031 -4.796875 8.265625 -13.625 C 10.710938 -17.792969 10.128906 -19.867188 8.417969 -21.273438 C 16.839844 -21.53125 18.464844 -33.050781 15.886719 -39.230469 L 14.65625 -38.953125 C 15.3125 -36.433594 14.699219 -34.59375 12.800781 -33.972656 C 9.980469 -33.027344 7.347656 -34.90625 3.757812 -37.882812 C -3.253906 -43.664062 -11.582031 -42.546875 -16.589844 -34.015625 Z M 2.003906 -23.300781 C 5.03125 -21.527344 8.6875 -19.914062 8.53125 -18.402344 C 8.339844 -15.914062 5.648438 -14.625 0.0859375 -15.488281 C -4.152344 -16.109375 -6.785156 -17.988281 -6.589844 -20.476562 C -6.472656 -22.273438 -5.09375 -24.734375 -3.230469 -27.109375 L -3.035156 -26.992188 C -1.371094 -25.617188 0.347656 -24.34375 2.003906 -23.300781 Z M 2.003906 -23.300781 "/></g></g></g><g fill="#737373" fill-opacity="1"><g transform="translate(303.042014, 228.416284)"><g/></g></g></svg>